# AST/ASF file generated using VICON BodyLanguage
# -----------------------------------------------
:version 1.10
:name VICON
:units
  mass 1.0
  length 0.45
  angle deg
:documentation
   .ast/.asf automatically generated from VICON data using
   VICON BodyBuilder and BodyLanguage model FoxedUp or BRILLIANT.MOD
:root
   order TX TY TZ RX RY RZ
   axis XYZ
   position 0 0 0  
   orientation 0 0 0 
:bonedata
  begin
     id 1 
     name lhipjoint
     direction 0.630305 -0.712092 0.309259 
     length 2.29033 
     axis 0 0 0  XYZ
  end
  begin
     id 2 
     name lfemur
     direction 0.34202 -0.939693 0  
     length 6.43538  
     axis 0 0 20  XYZ
    dof rx ry rz
    limits (-160.0 20.0)
           (-70.0 70.0)
           (-60.0 70.0)
  end
  begin
     id 3 
     name ltibia
     direction 0.34202 -0.939693 0   
     length 7.43097   
     axis 0 0 20   XYZ
    dof rx
    limits (-10.0 170.0)
  end
  begin
     id 4 
     name lfoot
     direction 0.0334653 -0.0919451 0.995202   
     length 1.78438   
     axis -90 7.62852e-016 20   XYZ
    dof rx rz
    limits (-45.0 90.0)
           (-70.0 20.0)
  end
  begin
     id 5 
     name ltoes
     direction 1.53535e-011 -4.21933e-011 1   
     length 0.90832   
     axis -90 7.62852e-016 20   XYZ
    dof rx
    limits (-90.0 20.0)
  end
  begin
     id 6 
     name rhipjoint
     direction -0.682059 -0.67077 0.291312   
     length 2.43143  
     axis 0 0 0  XYZ 
  end
  begin
     id 7 
     name rfemur
     direction -0.34202 -0.939693 0   
     length 6.63488   
     axis 0 0 -20   XYZ
    dof rx ry rz
    limits (-160.0 20.0)
           (-70.0 70.0)
           (-70.0 60.0)
  end
  begin
     id 8 
     name rtibia
     direction -0.34202 -0.939693 0   
     length 6.86532   
     axis 0 0 -20   XYZ
    dof rx
    limits (-10.0 170.0)
 end
 begin
     id 9 
     name rfoot
     direction -0.105199 -0.289033 0.951521   
     length 1.77126  
     axis -90 -7.62852e-016 -20   XYZ
    dof rx rz
    limits (-45.0 90.0)
           (-20.0 70.0)
  end
  begin
     id 10 
     name rtoes
     direction -1.53551e-011 -4.21978e-011 1   
     length 0.889273   
     axis -90 -7.62852e-016 -20   XYZ
    dof rx
    limits (-90.0 20.0)
  end
  begin
     id 11 
     name lowerback
     direction -0.0514305 0.998089 0.034245   
     length 2.02077   
     axis 0 0 0   XYZ
    dof rx ry rz
    limits (-20.0 45.0)
           (-30.0 30.0)
           (-30.0 30.0)
  end
  begin
     id 12 
     name upperback
     direction 0.0203189 0.999449 -0.0262315   
     length 2.01413   
     axis 0 0 0   XYZ
    dof rx ry rz
    limits (-20.0 45.0)
           (-30.0 30.0)
           (-30.0 30.0)
  end
  begin
     id 13 
     name thorax
     direction 0.0452736 0.998142 -0.0407729   
     length 2.02986   
     axis 0 0 0   XYZ
    dof rx ry rz
    limits (-20.0 45.0)
           (-30.0 30.0)
           (-30.0 30.0)
  end
  begin
     id 14 
     name lowerneck
     direction -0.0180464 0.999645 -0.0195774   
     length 1.59034   
     axis 0 0 0   XYZ
    dof rx ry rz
    limits (-20.0 45.0)
           (-30.0 30.0)
           (-30.0 30.0)
  end
  begin
     id 15 
     name upperneck
     direction 0.0732272 0.979935 -0.18538   
     length 1.57486   
     axis 0 0 0   XYZ
    dof rx ry rz
    limits (-20.0 45.0)
           (-30.0 30.0)
           (-30.0 30.0)
  end
  begin
     id 16
     name head
     direction 0.0252963 0.997909 -0.059472  
     length 1.60334  
     axis 0 0 0   XYZ
    dof rx ry rz
    limits (-20.0 45.0)
           (-30.0 30.0)
           (-30.0 30.0)
  end
  begin
     id 17 
     name lclavicle
     direction 0.943819 0.330449 0.00315172  
     length 3.50322  
     axis 0 0 0   XYZ
    dof ry rz
    limits (-20.0 10.0)
           (0.0 20.0)
  end
  begin
     id 18 
     name lhumerus
     direction 1 -4.48949e-011 2.22502e-028   
     length 4.63208   
     axis 180 -30 -90   XYZ
    dof rx ry rz
    limits (-60.0 90.0)
           (-90.0 90.0)
           (-90.0 90.0)
  end
  begin
     id 19
     name lradius
     direction 1 -4.48967e-011 -4.10197e-027   
     length 3.41924   
     axis 180 -30 -90   XYZ
    dof rx
    limits (-10.0 170.0)
  end
  begin
     id 20
     name lwrist
     direction 1 -4.48987e-011 -1.24264e-027   
     length 1.70962   
     axis 2.50585e-015 90 90   XYZ
    dof ry
    limits (-180.0 0.0)
 end
  begin
     id 21 
     name lhand
     direction 1 -4.48983e-011 -2.48528e-027   
     length 0.62537   
     axis 1.58582e-015 90 90   XYZ
    dof rx rz
    limits (-90.0 90.0)
           (-45.0 45.0)
  end
  begin
     id 22 
     name lfingers
     direction 1 -4.48896e-011 -4.97056e-027   
     length 0.50419   
     axis 3.17164e-015 90 90   XYZ
    dof rx
    limits (0.0 90.0)
  end
  begin
     id 23
     name lthumb
     direction 0.707107 -6.34803e-011 0.707107   
     length 0.723919   
     axis -90 45 2.85299e-015   XYZ
    dof rx rz
    limits (-45.0 45.0)
           (-45.0 45.0)
  end
  begin
     id 24 
     name rclavicle
     direction -0.964499 0.260664 -0.0423695   
     length 3.91997  
     axis 0 0 0   XYZ 
    dof ry rz
    limits (-10.0 20.0)
           (-20.0 0.0)
  end
  begin
     id 25 
     name rhumerus
     direction -1 -4.48957e-011 -1.98656e-027  
     length 4.4064   
     axis 180 30 90   XYZ
    dof rx ry rz
    limits (-90.0 60.0)
           (-90.0 90.0)
           (-90.0 90.0)
  end
  begin
     id 26 
     name rradius
     direction -1 -4.48968e-011 1.96972e-027   
     length 3.44675   
     axis 180 30 90   XYZ
    dof rx
    limits (-10.0 170.0)
  end
  begin
     id 27 
     name rwrist
     direction -1 -4.48974e-011 -1.24264e-027   
     length 1.72338   
     axis 2.50585e-015 -90 -90   XYZ
    dof ry
    limits (-180.0 0.0)
  end
  begin
     id 28
     name rhand
     direction -1 -4.48901e-011 -2.48528e-027   
     length 0.513674   
     axis 1.58582e-015 -90 -90   XYZ
    dof rx rz
    limits (-90.0 90.0)
           (-45.0 45.0)
  end
  begin
     id 29
     name rfingers
     direction -1 -4.48946e-011 -4.97056e-027   
     length 0.414137   
     axis 3.17164e-015 -90 -90   XYZ
    dof rx
    limits (0.0 90.0)
  end
  begin
     id 30
     name rthumb
     direction -0.707107 -6.34859e-011 0.707107   
     length 0.59462   
     axis -90 -45 -2.85299e-015   XYZ
    dof rx rz
    limits (-45.0 45.0)
           (-45.0 45.0)
  end
:hierarchy
  begin
    root lhipjoint rhipjoint lowerback
    lhipjoint lfemur
    lfemur ltibia
    ltibia lfoot
    lfoot ltoes
    rhipjoint rfemur
    rfemur rtibia
    rtibia rfoot
    rfoot rtoes
    lowerback upperback
    upperback thorax
    thorax lowerneck lclavicle rclavicle
    lowerneck upperneck
    upperneck head
    lclavicle lhumerus
    lhumerus lradius
    lradius lwrist
    lwrist lhand lthumb
    lhand lfingers
    rclavicle rhumerus
    rhumerus rradius
    rradius rwrist
    rwrist rhand rthumb
    rhand rfingers
  end

#!OML:ASF E:\inclinewalkrobotboard\Project 1\Capture day 1\Session 1\subject1.ASF
:FULLY-SPECIFIED
:DEGREES
196
root 8.23427 16.4796 9.71359 -177.819 -1.99576 178.627
lowerback 10.6054 -0.0560214 -6.67139
upperback 7.05681 -1.55283 3.30538
thorax 1.71872 -1.47523 7.38028
lowerneck -4.98798 -0.622541 -3.1836
upperneck 19.3566 0.354935 1.29516
head 6.70751 0.449956 1.02196
rclavicle 1.19271e-015 2.94201e-014
rhumerus -43.2008 -12.0633 -67.8042
rradius 42.7427
rwrist 8.58832
rhand -22.1625 -37.7842
rfingers 7.12502
rthumb 4.25185 -67.7215
lclavicle 1.19271e-015 2.94201e-014
lhumerus -22.2102 -11.5589 94.3338
lradius 45.2709
lwrist -17.2061
lhand -33.6228 -20.027
lfingers 7.12502
lthumb -6.81547 9.84332
rfemur -67.3087 9.21339 7.71726
rtibia 61.9014
rfoot 347.715 -11.9671
rtoes -28.7337
lfemur -15.9231 -5.47553 -27.8854
ltibia 26.6422
lfoot -14.8266 0.95045
ltoes -52.7637
197
root 8.24116 16.4901 9.64187 -177.503 -2.18735 178.676
lowerback 9.8997 -0.044596 -6.71074
upperback 6.80471 -1.41492 3.16795
thorax 1.81083 -1.36316 7.22721
lowerneck -5.41476 -0.878446 -3.19673
upperneck 20.006 0.0369611 1.48745
head 6.99975 0.328093 1.07209
rclavicle -4.17448e-015 -2.38542e-015
rhumerus -41.8867 -12.7467 -68.4494
rradius 42.3682
rwrist 8.57821
rhand -21.7332 -38.2987
rfingers 7.12502
rthumb 4.66642 -68.2273
lclavicle -4.17448e-015 -2.38542e-015
lhumerus -22.6918 -10.9063 94.06
lradius 42.9227
lwrist -16.9636
lhand -33.1468 -20.4754
lfingers 7.12502
lthumb -6.3559 9.40924
rfemur -63.9387 8.94325 8.38461
rtibia 60.5573
rfoot 348.31 -11.9239
rtoes -28.1652
lfemur -15.6887 -5.29863 -27.7496
ltibia 26.0163
lfoot -14.7233 0.766089
ltoes -53.5579
198
root 8.25151 16.5019 9.56985 -177.232 -2.5116 178.787
lowerback 9.2355 -0.0450499 -6.62826
upperback 6.55119 -1.29152 3.02695
thorax 1.87931 -1.25556 7.00518
lowerneck -4.59515 -1.10375 -4.01711
upperneck 19.6021 -0.399575 2.60464
head 6.7382 0.155671 1.53362
rclavicle -9.34288e-015 1.31198e-014
rhumerus -40.9443 -13.5426 -69.0458
rradius 42.1902
rwrist 8.7455
rhand -21.4351 -39.0112
rfingers 7.12502
rthumb 4.95424 -68.9333
lclavicle -9.34288e-015 1.31198e-014
lhumerus -23.4186 -10.1903 93.7421
lradius 40.9713
lwrist -17.223
lhand -32.5511 -20.463
lfingers 7.12502
lthumb -5.78086 9.43813
rfemur -60.5336 8.50226 9.12913
rtibia 59.198
rfoot 348.281 -12.1243
rtoes -29.1912
lfemur -15.461 -5.44476 -27.5621
ltibia 25.5297
lfoot -14.7274 0.637883
ltoes -54.0035
199
root 8.26485 16.517 9.49325 -177.023 -3.04515 178.772
lowerback 8.55196 -0.07838 -6.66627
upperback 6.33248 -1.22631 2.85879
thorax 2.01099 -1.18779 6.82889
lowerneck -5.93986 -1.26246 -3.06251
upperneck 21.0301 -0.494272 2.01725
head 7.44014 0.166274 1.19548
rclavicle -1.0138e-014 3.1408e-014
rhumerus -40.1689 -14.5288 -69.5618
rradius 42.0246
rwrist 9.17122
rhand -21.2835 -39.1949
rfingers 7.12502
rthumb 5.10062 -69.1135
lclavicle -1.0138e-014 3.1408e-014
lhumerus -24.276 -9.48903 93.3685
lradius 39.4126
lwrist -17.6729
lhand -31.9875 -19.913
lfingers 7.12502
lthumb -5.23663 10.0023
rfemur -57.0047 7.77992 9.75285
rtibia 57.7587
rfoot 347.78 -12.2204
rtoes -29.3437
lfemur -15.1423 -5.69874 -27.5479
ltibia 25.1114
lfoot -14.7479 0.343786
ltoes -54.5168
200
root 8.28034 16.531 9.4142 -176.692 -3.47321 178.784
lowerback 7.84844 -0.104873 -6.80997
upperback 5.97481 -1.14233 2.74802
thorax 2.01178 -1.09921 6.77725
lowerneck -6.30871 -1.42298 -2.9253
upperneck 21.697 -0.7112 2.27208
head 7.73218 0.123204 1.2483
rclavicle 3.57812e-015 1.19271e-015
rhumerus -39.7777 -15.1992 -70.0088
rradius 41.7602
rwrist 9.11745
rhand -21.0753 -39.5284
rfingers 7.12502
rthumb 5.30166 -69.4421
lclavicle 3.57812e-015 1.19271e-015
lhumerus -25.1197 -8.80651 93.0468
lradius 37.6298
lwrist -17.8998
lhand -31.7112 -19.2014
lfingers 7.12502
lthumb -4.96985 10.7203
rfemur -53.7275 6.95067 10.4928
rtibia 56.3572
rfoot 347.307 -12.2539
rtoes -29.4286
lfemur -14.9318 -5.88016 -27.4723
ltibia 24.6493
lfoot -14.7071 0.0551004
ltoes -54.6689
